<svg xmlns="http://www.w3.org/2000/svg" viewBox="0 0 960 520" width="100%" height="100%">
  <defs>
    <filter id="shadow6" x="-2%" y="-2%" width="104%" height="104%">
      <feDropShadow dx="0" dy="3" stdDeviation="4" flood-color="#000" flood-opacity="0.2" />
    </filter>
  </defs>

  <!-- Browser Frame Background -->
  <rect width="960" height="520" rx="12" fill="#0b1120" stroke="#334155" stroke-width="2" />

  <!-- Browser Title Bar -->
  <path d="M0 12 C0 5.37 5.37 0 12 0 L948 0 C954.63 0 960 5.37 960 12 L960 36 L0 36 Z" fill="#1e293b" />
  <circle cx="20" cy="18" r="5" fill="#ef4444" />
  <circle cx="36" cy="18" r="5" fill="#f59e0b" />
  <circle cx="52" cy="18" r="5" fill="#10b981" />
  <rect x="240" y="8" width="480" height="20" rx="10" fill="#0f172a" />
  <text x="480" y="22" fill="#94a3b8" font-family="'Segoe UI', sans-serif" font-size="11" text-anchor="middle">https://labbookplus.netlify.app/CarePlus.html (MPIR Lab Care+)</text>

  <!-- App Header Navbar -->
  <g transform="translate(0, 36)">
    <rect width="960" height="48" fill="#0f172a" stroke="#334155" />
    <circle cx="30" cy="24" r="12" fill="#0284c7" />
    <text x="50" y="29" fill="#f8fafc" font-family="'Segoe UI', sans-serif" font-size="14" font-weight="800">MPIR Lab Care+</text>
    <rect x="180" y="14" width="70" height="20" rx="10" fill="#0284c7" fill-opacity="0.2" stroke="#0284c7" />
    <text x="215" y="28" fill="#38bdf8" font-family="'Segoe UI', sans-serif" font-size="9" font-weight="700" text-anchor="middle">MAINTENANCE</text>

    <!-- Right Switch Buttons -->
    <rect x="670" y="11" width="95" height="26" rx="6" fill="#0f766e" fill-opacity="0.2" stroke="#0f766e" />
    <text x="717" y="27" fill="#2dd4bf" font-family="'Segoe UI', sans-serif" font-size="11" font-weight="700" text-anchor="middle">🧪 Lab Book+</text>

    <rect x="775" y="11" width="95" height="26" rx="6" fill="#0284c7" fill-opacity="0.25" stroke="#38bdf8" />
    <text x="822" y="27" fill="#38bdf8" font-family="'Segoe UI', sans-serif" font-size="11" font-weight="700" text-anchor="middle">📖 Docs &amp; Guide</text>

    <circle cx="895" cy="24" r="12" fill="#334155" />
    <text x="915" y="28" fill="#f8fafc" font-family="'Segoe UI', sans-serif" font-size="11" font-weight="700">Admin</text>
  </g>

  <!-- Main Content Layout -->
  <g transform="translate(20, 96)">
    <!-- KPI Overview Cards -->
    <g transform="translate(0, 0)">
      <rect width="180" height="60" rx="8" fill="#1e293b" stroke="#334155" />
      <text x="14" y="24" fill="#94a3b8" font-family="'Segoe UI', sans-serif" font-size="10" font-weight="700">เครื่องมือทั้งหมด</text>
      <text x="14" y="48" fill="#f8fafc" font-family="'Segoe UI', sans-serif" font-size="20" font-weight="800">18 ชิ้น</text>

      <g transform="translate(195, 0)">
        <rect width="180" height="60" rx="8" fill="#1e293b" stroke="#059669" />
        <text x="14" y="24" fill="#34d399" font-family="'Segoe UI', sans-serif" font-size="10" font-weight="700">พร้อมใช้งาน (Ready)</text>
        <text x="14" y="48" fill="#10b981" font-family="'Segoe UI', sans-serif" font-size="20" font-weight="800">16 ชิ้น</text>
      </g>

      <g transform="translate(390, 0)">
        <rect width="180" height="60" rx="8" fill="#1e293b" stroke="#f59e0b" />
        <text x="14" y="24" fill="#fbbf24" font-family="'Segoe UI', sans-serif" font-size="10" font-weight="700">นัดหมายซ่อม/PM เดือนนี้</text>
        <text x="14" y="48" fill="#f59e0b" font-family="'Segoe UI', sans-serif" font-size="20" font-weight="800">4 รายการ</text>
      </g>

      <g transform="translate(585, 0)">
        <rect width="335" height="60" rx="8" fill="#1e293b" stroke="#0284c7" />
        <text x="14" y="24" fill="#38bdf8" font-family="'Segoe UI', sans-serif" font-size="10" font-weight="700">งบประมาณบำรุงรักษาสะสม (YTD)</text>
        <text x="14" y="48" fill="#38bdf8" font-family="'Segoe UI', sans-serif" font-size="20" font-weight="800">฿ 148,500.00</text>
      </g>
    </g>

    <!-- Maintenance Records Table -->
    <g transform="translate(0, 75)">
      <rect width="920" height="325" rx="10" fill="#0f172a" stroke="#334155" />
      <rect width="920" height="36" rx="10" fill="#1e293b" />
      <text x="16" y="23" fill="#f8fafc" font-family="'Segoe UI', Sarabun, sans-serif" font-size="12" font-weight="700">รายการประวัติซ่อมบำรุง &amp; สอบเทียบมาตรฐาน (Maintenance &amp; Calibration Logs)</text>

      <!-- Row 1 -->
      <g transform="translate(16, 50)">
        <text x="0" y="20" fill="#38bdf8" font-family="'Segoe UI', sans-serif" font-size="11" font-weight="700">HPLC Waters 2695</text>
        <rect x="180" y="5" width="70" height="22" rx="11" fill="#0284c7" fill-opacity="0.2" />
        <text x="215" y="20" fill="#38bdf8" font-family="'Segoe UI', sans-serif" font-size="10" font-weight="700" text-anchor="middle">CALIBRATION</text>
        <text x="280" y="20" fill="#cbd5e1" font-family="'Segoe UI', sans-serif" font-size="11">ช่าง: นายสมศักดิ์ (Supplier A)</text>
        <text x="490" y="20" fill="#cbd5e1" font-family="'Segoe UI', sans-serif" font-size="11">PO-6709-012</text>
        <text x="610" y="20" fill="#10b981" font-family="'Segoe UI', sans-serif" font-size="11" font-weight="700">฿ 25,000.00</text>
        <!-- Attachment Gzip Pill -->
        <rect x="710" y="4" width="105" height="24" rx="4" fill="#059669" fill-opacity="0.25" stroke="#10b981" />
        <text x="762" y="20" fill="#34d399" font-family="'Segoe UI', sans-serif" font-size="10" font-weight="700" text-anchor="middle">📎 PO.pdf (-78%)</text>
        <!-- Preview Button -->
        <rect x="830" y="4" width="60" height="24" rx="4" fill="#0284c7" />
        <text x="860" y="20" fill="#ffffff" font-family="'Segoe UI', sans-serif" font-size="10" font-weight="700" text-anchor="middle">👁️ พรีวิว</text>
      </g>
      <line x1="16" y1="88" x2="904" y2="88" stroke="#1e293b" />

      <!-- Row 2 -->
      <g transform="translate(16, 102)">
        <text x="0" y="20" fill="#38bdf8" font-family="'Segoe UI', sans-serif" font-size="11" font-weight="700">GC-MS Agilent 7890</text>
        <rect x="180" y="5" width="70" height="22" rx="11" fill="#f59e0b" fill-opacity="0.2" />
        <text x="215" y="20" fill="#fbbf24" font-family="'Segoe UI', sans-serif" font-size="10" font-weight="700" text-anchor="middle">PM 6 MONTHS</text>
        <text x="280" y="20" fill="#cbd5e1" font-family="'Segoe UI', sans-serif" font-size="11">ช่าง: บจก. เทคโนแล็บ</text>
        <text x="490" y="20" fill="#cbd5e1" font-family="'Segoe UI', sans-serif" font-size="11">PO-6708-044</text>
        <text x="610" y="20" fill="#10b981" font-family="'Segoe UI', sans-serif" font-size="11" font-weight="700">฿ 18,500.00</text>
        <rect x="710" y="4" width="105" height="24" rx="4" fill="#059669" fill-opacity="0.25" stroke="#10b981" />
        <text x="762" y="20" fill="#34d399" font-family="'Segoe UI', sans-serif" font-size="10" font-weight="700" text-anchor="middle">📎 Cert.pdf (-65%)</text>
        <rect x="830" y="4" width="60" height="24" rx="4" fill="#0284c7" />
        <text x="860" y="20" fill="#ffffff" font-family="'Segoe UI', sans-serif" font-size="10" font-weight="700" text-anchor="middle">👁️ พรีวิว</text>
      </g>
      <line x1="16" y1="140" x2="904" y2="140" stroke="#1e293b" />

      <!-- Row 3 -->
      <g transform="translate(16, 154)">
        <text x="0" y="20" fill="#38bdf8" font-family="'Segoe UI', sans-serif" font-size="11" font-weight="700">Autoclave Tomy SX-700</text>
        <rect x="180" y="5" width="70" height="22" rx="11" fill="#ef4444" fill-opacity="0.2" />
        <text x="215" y="20" fill="#f87171" font-family="'Segoe UI', sans-serif" font-size="10" font-weight="700" text-anchor="middle">CORRECTIVE</text>
        <text x="280" y="20" fill="#cbd5e1" font-family="'Segoe UI', sans-serif" font-size="11">เปลี่ยนปะเก็นฝาหม้อนึ่ง</text>
        <text x="490" y="20" fill="#cbd5e1" font-family="'Segoe UI', sans-serif" font-size="11">PO-6708-011</text>
        <text x="610" y="20" fill="#10b981" font-family="'Segoe UI', sans-serif" font-size="11" font-weight="700">฿ 6,200.00</text>
        <rect x="710" y="4" width="105" height="24" rx="4" fill="#059669" fill-opacity="0.25" stroke="#10b981" />
        <text x="762" y="20" fill="#34d399" font-family="'Segoe UI', sans-serif" font-size="10" font-weight="700" text-anchor="middle">📎 Bill.pdf (-81%)</text>
        <rect x="830" y="4" width="60" height="24" rx="4" fill="#0284c7" />
        <text x="860" y="20" fill="#ffffff" font-family="'Segoe UI', sans-serif" font-size="10" font-weight="700" text-anchor="middle">👁️ พรีวิว</text>
      </g>
    </g>
  </g>
</svg>
